<svg width="353" height="109" viewBox="0 0 353 109" fill="none" xmlns="http://www.w3.org/2000/svg">
<path d="M27.0063 1.168C27.5183 0.655999 28.073 0.400002 28.67 0.400002C30.036 0.400002 30.718 1.04 30.718 2.32C30.718 3.088 30.377 3.8133 29.694 4.496C25.6837 8.6773 21.5877 12.7307 17.4063 16.656C13.225 20.5813 8.8303 24.5493 4.2223 28.56C6.6117 32.4 9.001 36.4107 11.3903 40.592C13.865 44.688 16.041 48.656 17.9183 52.496C18.089 52.837 18.1743 53.307 18.1743 53.904C18.1743 54.587 17.961 55.184 17.5343 55.696C17.193 56.208 16.7663 56.464 16.2543 56.464C15.401 56.464 14.6757 55.824 14.0783 54.544C12.201 50.533 10.153 46.565 7.9343 42.64C5.801 38.7147 3.5397 34.7893 1.1503 30.864C0.894299 30.352 0.681 29.8827 0.5103 29.456C0.3397 28.944 0.254303 28.4747 0.254303 28.048C0.254303 27.28 0.638303 26.512 1.4063 25.744C6.0997 21.648 10.537 17.5947 14.7183 13.584C18.985 9.488 23.081 5.3493 27.0063 1.168Z" fill="white"/>
<path d="M30.498 87.258C29.346 87.258 28.77 86.714 28.77 85.626C28.77 84.41 31.682 76.506 37.506 61.914L38.754 58.746C39.65 56.442 40.386 54.266 40.962 52.218C43.01 44.346 46.21 36.1223 50.562 27.5463C52.674 23.4503 54.274 21.3703 55.362 21.3063C55.746 21.3063 56.162 21.4663 56.61 21.7863C57.122 22.1063 57.378 22.4903 57.378 22.9383C57.378 23.3863 56.962 24.8263 56.13 27.2583C55.298 29.6263 54.242 32.5063 52.962 35.8983L48.642 46.842L44.13 58.074L40.29 67.578L37.986 73.434L36.162 77.658C35.458 79.322 34.754 80.858 34.05 82.266C32.386 85.594 31.202 87.258 30.498 87.258Z" fill="white"/>
<path d="M60.244 107.405C59.732 107.917 59.178 108.173 58.58 108.173C57.215 108.173 56.532 107.533 56.532 106.253C56.532 105.485 56.874 104.76 57.556 104.077C61.567 99.811 65.663 95.715 69.844 91.789C74.026 87.864 78.42 83.939 83.028 80.013C80.639 76.173 78.207 72.205 75.732 68.109C73.343 63.928 71.21 59.917 69.332 56.077C69.162 55.736 69.076 55.267 69.076 54.669C69.076 53.987 69.247 53.389 69.588 52.877C70.015 52.365 70.484 52.109 70.996 52.109C71.85 52.109 72.575 52.749 73.172 54.029C75.05 57.955 77.055 61.88 79.188 65.805C81.407 69.731 83.711 73.699 86.1 77.709C86.356 78.221 86.57 78.733 86.74 79.245C86.911 79.672 86.996 80.099 86.996 80.525C86.996 81.293 86.612 82.061 85.844 82.829C81.151 86.925 76.671 91.021 72.404 95.117C68.223 99.128 64.17 103.224 60.244 107.405Z" fill="white"/>
<path d="M141.804 76.071C138.561 76.071 135.596 75.516 132.908 74.407C130.22 73.255 127.894 71.655 125.932 69.607C123.969 67.516 122.433 65.063 121.324 62.247C120.257 59.388 119.724 56.274 119.724 52.903C119.724 49.49 120.257 46.354 121.324 43.495C122.433 40.6364 123.969 38.1618 125.932 36.0711C127.894 33.9378 130.22 32.2951 132.908 31.1431C135.596 29.9911 138.561 29.3938 141.804 29.3511C143.254 29.3511 144.854 29.5431 146.604 29.9271C148.353 30.2684 150.124 30.7591 151.916 31.3991C153.75 32.0391 155.436 32.7858 156.972 33.6391V43.111H154.54C154.54 41.7884 154.134 40.4658 153.324 39.1431C152.556 37.8204 151.489 36.6044 150.124 35.4951C148.801 34.3858 147.308 33.5111 145.644 32.8711C143.98 32.1884 142.273 31.8471 140.524 31.8471C137.836 31.8471 135.446 32.5724 133.356 34.0231C131.265 35.4311 129.622 37.3938 128.428 39.9111C127.276 42.3858 126.7 45.266 126.7 48.551C126.7 53.415 127.404 57.746 128.812 61.543C130.22 65.298 132.14 68.242 134.572 70.375C137.046 72.508 139.884 73.575 143.084 73.575C145.345 73.575 147.329 73.106 149.036 72.167C150.742 71.186 152.086 69.842 153.068 68.135C154.049 66.428 154.54 64.487 154.54 62.311H156.972V71.783C155.436 72.594 153.75 73.34 151.916 74.023C150.124 74.663 148.332 75.154 146.54 75.495C144.79 75.879 143.212 76.071 141.804 76.071ZM160.932 88.935V87.527L167.588 85.479L165.924 86.823L174.116 72.615V74.727L161.828 45.223L163.236 46.759L157.412 44.455V43.111H167.14L177.124 66.919H176.484L184.996 45.159L185.636 46.695L179.876 44.327V43.111H193.252V44.391L187.044 46.695L188.58 45.223L175.908 75.111L170.084 88.935H160.932ZM193.764 75.111V73.831L200.228 71.591L199.14 73.063V46.247L200.292 47.527L192.484 46.631V45.607L203.812 42.0871L205.156 42.5351L204.772 50.663L204.196 50.471L209.316 42.0231C210.425 41.9378 211.47 41.9804 212.452 42.1511C213.476 42.3218 214.414 42.5778 215.268 42.9191C216.164 43.218 216.974 43.602 217.7 44.071L215.076 49.319C214.222 48.764 213.348 48.359 212.452 48.103C211.556 47.804 210.724 47.655 209.956 47.655C209.102 47.655 208.334 48.103 207.652 48.999C206.969 49.895 206.073 51.26 204.964 53.095C204.836 53.351 204.686 53.607 204.516 53.863C204.388 54.119 204.238 54.396 204.068 54.695L204.772 52.391V73.063L203.684 71.591L211.556 73.831V75.111H193.764ZM219.624 75.111V73.831L226.728 71.591L225.64 73.063V46.247L226.792 47.527L218.984 46.631V45.607L230.888 42.0871L231.528 42.4711L231.4 47.335V72.999L230.312 71.463L237.416 73.831V75.111H219.624ZM227.304 36.6471C226.152 36.6471 225.17 36.2418 224.36 35.4311C223.549 34.6204 223.144 33.6604 223.144 32.5511C223.144 31.4418 223.549 30.4818 224.36 29.6711C225.17 28.8604 226.152 28.4551 227.304 28.4551C228.413 28.4551 229.352 28.8604 230.12 29.6711C230.93 30.4818 231.336 31.4418 231.336 32.5511C231.336 33.6604 230.93 34.6204 230.12 35.4311C229.352 36.2418 228.413 36.6471 227.304 36.6471ZM238.878 75.111V73.831L245.79 71.527L244.702 73.063V28.0711L245.854 29.3511L238.046 28.4551V27.4311L249.95 23.9111L250.59 24.2951L250.398 29.1591V73.063L249.374 71.527L256.478 73.895V75.111H238.878ZM270.418 75.111V73.831L277.33 71.527L276.242 73.063V32.3591L277.33 33.8951L270.418 31.5911V30.3111H288.338V31.5271L281.234 33.8951L282.322 32.3591V52.263L281.17 51.111H308.434L307.282 52.263V32.3591L308.37 33.8951L301.458 31.5911V30.3111H319.378V31.5271L312.274 33.8951L313.362 32.3591V73.063L312.274 71.527L319.378 73.895V75.111H301.458V73.831L308.37 71.527L307.282 73.063V52.519L308.434 53.671H281.17L282.322 52.519V73.063L281.234 71.527L288.338 73.895V75.111H270.418ZM337.024 76.071C334.038 76.071 331.371 75.324 329.024 73.831C326.72 72.338 324.907 70.29 323.584 67.687C322.304 65.042 321.664 62.034 321.664 58.663C321.664 55.42 322.304 52.562 323.584 50.087C324.907 47.57 326.72 45.607 329.024 44.199C331.371 42.7484 334.038 42.0231 337.024 42.0231C339.968 42.0231 342.571 42.7058 344.832 44.071C347.136 45.436 348.928 47.335 350.208 49.767C351.488 52.156 352.128 54.908 352.128 58.023C352.128 61.522 351.488 64.636 350.208 67.367C348.928 70.098 347.136 72.231 344.832 73.767C342.571 75.303 339.968 76.071 337.024 76.071ZM337.856 73.831C340.246 73.831 342.123 72.594 343.488 70.119C344.896 67.644 345.6 64.274 345.6 60.007C345.6 55.143 344.747 51.303 343.04 48.487C341.376 45.671 339.094 44.263 336.192 44.263C333.718 44.263 331.755 45.394 330.304 47.655C328.896 49.874 328.192 52.946 328.192 56.871C328.192 62.119 329.046 66.258 330.752 69.287C332.502 72.316 334.87 73.831 337.856 73.831Z" fill="white"/>
</svg>
