<svg width="499" height="206" viewBox="0 0 499 206" fill="none" xmlns="http://www.w3.org/2000/svg">
<path d="M0 21H499V205.035H0V21Z" fill="white"/>
<path d="M99.0063 58.168C99.5183 57.656 100.073 57.4 100.67 57.4C102.036 57.4 102.718 58.04 102.718 59.32C102.718 60.088 102.377 60.8133 101.694 61.496C97.6837 65.6773 93.5877 69.7307 89.4063 73.656C85.225 77.5813 80.8303 81.5493 76.2223 85.56C78.6117 89.4 81.001 93.4107 83.3903 97.592C85.865 101.688 88.041 105.656 89.9183 109.496C90.089 109.837 90.1743 110.307 90.1743 110.904C90.1743 111.587 89.961 112.184 89.5343 112.696C89.193 113.208 88.7663 113.464 88.2543 113.464C87.401 113.464 86.6757 112.824 86.0783 111.544C84.201 107.533 82.153 103.565 79.9343 99.64C77.801 95.7147 75.5397 91.7893 73.1503 87.864C72.8943 87.352 72.681 86.8827 72.5103 86.456C72.3397 85.944 72.2543 85.4747 72.2543 85.048C72.2543 84.28 72.6383 83.512 73.4063 82.744C78.0997 78.648 82.537 74.5947 86.7183 70.584C90.985 66.488 95.081 62.3493 99.0063 58.168Z" fill="#363053"/>
<path d="M102.498 144.258C101.346 144.258 100.77 143.714 100.77 142.626C100.77 141.41 103.682 133.506 109.506 118.914L110.754 115.746C111.65 113.442 112.386 111.266 112.962 109.218C115.01 101.346 118.21 93.1223 122.562 84.5463C124.674 80.4503 126.274 78.3703 127.362 78.3063C127.746 78.3063 128.162 78.4663 128.61 78.7863C129.122 79.1063 129.378 79.4903 129.378 79.9383C129.378 80.3863 128.962 81.8263 128.13 84.2583C127.298 86.6263 126.242 89.5063 124.962 92.8983L120.642 103.842L116.13 115.074L112.29 124.578L109.986 130.434L108.162 134.658C107.458 136.322 106.754 137.858 106.05 139.266C104.386 142.594 103.202 144.258 102.498 144.258Z" fill="#363053"/>
<path d="M132.244 164.405C131.732 164.917 131.178 165.173 130.58 165.173C129.215 165.173 128.532 164.533 128.532 163.253C128.532 162.485 128.874 161.76 129.556 161.077C133.567 156.811 137.663 152.715 141.844 148.789C146.026 144.864 150.42 140.939 155.028 137.013C152.639 133.173 150.207 129.205 147.732 125.109C145.343 120.928 143.21 116.917 141.332 113.077C141.162 112.736 141.076 112.267 141.076 111.669C141.076 110.987 141.247 110.389 141.588 109.877C142.015 109.365 142.484 109.109 142.996 109.109C143.85 109.109 144.575 109.749 145.172 111.029C147.05 114.955 149.055 118.88 151.188 122.805C153.407 126.731 155.711 130.699 158.1 134.709C158.356 135.221 158.57 135.733 158.74 136.245C158.911 136.672 158.996 137.099 158.996 137.525C158.996 138.293 158.612 139.061 157.844 139.829C153.151 143.925 148.671 148.021 144.404 152.117C140.223 156.128 136.17 160.224 132.244 164.405Z" fill="#040404"/>
<path d="M213.804 133.071C210.561 133.071 207.596 132.516 204.908 131.407C202.22 130.255 199.894 128.655 197.932 126.607C195.969 124.516 194.433 122.063 193.324 119.247C192.257 116.388 191.724 113.274 191.724 109.903C191.724 106.49 192.257 103.354 193.324 100.495C194.433 97.6364 195.969 95.1618 197.932 93.0711C199.894 90.9378 202.22 89.2951 204.908 88.1431C207.596 86.9911 210.561 86.3938 213.804 86.3511C215.254 86.3511 216.854 86.5431 218.604 86.9271C220.353 87.2684 222.124 87.7591 223.916 88.3991C225.75 89.0391 227.436 89.7858 228.972 90.6391V100.111H226.54C226.54 98.7884 226.134 97.4658 225.324 96.1431C224.556 94.8204 223.489 93.6044 222.124 92.4951C220.801 91.3858 219.308 90.5111 217.644 89.8711C215.98 89.1884 214.273 88.8471 212.524 88.8471C209.836 88.8471 207.446 89.5724 205.356 91.0231C203.265 92.4311 201.622 94.3938 200.428 96.9111C199.276 99.3858 198.7 102.266 198.7 105.551C198.7 110.415 199.404 114.746 200.812 118.543C202.22 122.298 204.14 125.242 206.572 127.375C209.046 129.508 211.884 130.575 215.084 130.575C217.345 130.575 219.329 130.106 221.036 129.167C222.742 128.186 224.086 126.842 225.068 125.135C226.049 123.428 226.54 121.487 226.54 119.311H228.972V128.783C227.436 129.594 225.75 130.34 223.916 131.023C222.124 131.663 220.332 132.154 218.54 132.495C216.79 132.879 215.212 133.071 213.804 133.071ZM232.932 145.935V144.527L239.588 142.479L237.924 143.823L246.116 129.615V131.727L233.828 102.223L235.236 103.759L229.412 101.455V100.111H239.14L249.124 123.919H248.484L256.996 102.159L257.636 103.695L251.876 101.327V100.111H265.252V101.391L259.044 103.695L260.58 102.223L247.908 132.111L242.084 145.935H232.932ZM265.764 132.111V130.831L272.228 128.591L271.14 130.063V103.247L272.292 104.527L264.484 103.631V102.607L275.812 99.0871L277.156 99.5351L276.772 107.663L276.196 107.471L281.316 99.0231C282.425 98.9378 283.47 98.9804 284.452 99.1511C285.476 99.3218 286.414 99.5778 287.268 99.9191C288.164 100.218 288.974 100.602 289.7 101.071L287.076 106.319C286.222 105.764 285.348 105.359 284.452 105.103C283.556 104.804 282.724 104.655 281.956 104.655C281.102 104.655 280.334 105.103 279.652 105.999C278.969 106.895 278.073 108.26 276.964 110.095C276.836 110.351 276.686 110.607 276.516 110.863C276.388 111.119 276.238 111.396 276.068 111.695L276.772 109.391V130.063L275.684 128.591L283.556 130.831V132.111H265.764ZM291.624 132.111V130.831L298.728 128.591L297.64 130.063V103.247L298.792 104.527L290.984 103.631V102.607L302.888 99.0871L303.528 99.4711L303.4 104.335V129.999L302.312 128.463L309.416 130.831V132.111H291.624ZM299.304 93.6471C298.152 93.6471 297.17 93.2418 296.36 92.4311C295.549 91.6204 295.144 90.6604 295.144 89.5511C295.144 88.4418 295.549 87.4818 296.36 86.6711C297.17 85.8604 298.152 85.4551 299.304 85.4551C300.413 85.4551 301.352 85.8604 302.12 86.6711C302.93 87.4818 303.336 88.4418 303.336 89.5511C303.336 90.6604 302.93 91.6204 302.12 92.4311C301.352 93.2418 300.413 93.6471 299.304 93.6471ZM310.878 132.111V130.831L317.79 128.527L316.702 130.063V85.0711L317.854 86.3511L310.046 85.4551V84.4311L321.95 80.9111L322.59 81.2951L322.398 86.1591V130.063L321.374 128.527L328.478 130.895V132.111H310.878ZM342.418 132.111V130.831L349.33 128.527L348.242 130.063V89.3591L349.33 90.8951L342.418 88.5911V87.3111H360.338V88.5271L353.234 90.8951L354.322 89.3591V109.263L353.17 108.111H380.434L379.282 109.263V89.3591L380.37 90.8951L373.458 88.5911V87.3111H391.378V88.5271L384.274 90.8951L385.362 89.3591V130.063L384.274 128.527L391.378 130.895V132.111H373.458V130.831L380.37 128.527L379.282 130.063V109.519L380.434 110.671H353.17L354.322 109.519V130.063L353.234 128.527L360.338 130.895V132.111H342.418ZM409.024 133.071C406.038 133.071 403.371 132.324 401.024 130.831C398.72 129.338 396.907 127.29 395.584 124.687C394.304 122.042 393.664 119.034 393.664 115.663C393.664 112.42 394.304 109.562 395.584 107.087C396.907 104.57 398.72 102.607 401.024 101.199C403.371 99.7484 406.038 99.0231 409.024 99.0231C411.968 99.0231 414.571 99.7058 416.832 101.071C419.136 102.436 420.928 104.335 422.208 106.767C423.488 109.156 424.128 111.908 424.128 115.023C424.128 118.522 423.488 121.636 422.208 124.367C420.928 127.098 419.136 129.231 416.832 130.767C414.571 132.303 411.968 133.071 409.024 133.071ZM409.856 130.831C412.246 130.831 414.123 129.594 415.488 127.119C416.896 124.644 417.6 121.274 417.6 117.007C417.6 112.143 416.747 108.303 415.04 105.487C413.376 102.671 411.094 101.263 408.192 101.263C405.718 101.263 403.755 102.394 402.304 104.655C400.896 106.874 400.192 109.946 400.192 113.871C400.192 119.119 401.046 123.258 402.752 126.287C404.502 129.316 406.87 130.831 409.856 130.831Z" fill="#363053"/>
</svg>
